o convex_0
v 0.363363 1.582493 0.573036
v -0.645395 1.476279 0.121632
v -0.645395 1.476279 0.227888
v 0.642102 1.476279 0.121632
v -0.632025 1.555919 0.121632
v -0.366528 1.502843 0.573036
v 0.642102 1.555919 0.121632
v -0.645395 1.582493 0.506581
v 0.628859 1.502843 0.519909
v 0.642102 1.582493 0.440217
v -0.632025 1.502843 0.519909
v 0.642102 1.476279 0.227888
v 0.376606 1.502843 0.573036
v -0.326800 1.555919 0.586318
v -0.618782 1.582493 0.426980
v 0.615616 1.582493 0.533191
v 0.350120 1.489566 0.426980
v 0.350120 1.516110 0.586318
v -0.459484 1.582493 0.559709
v 0.655473 1.516110 0.493345
v -0.605539 1.516110 0.546427
v 0.655473 1.542642 0.121632
v -0.340042 1.516110 0.586318
f 14 21 23 
f 3 2 4 
f 4 2 5 
f 4 5 7 
f 2 3 8 
f 5 2 8 
f 8 1 10 
f 3 6 11 
f 8 3 11 
f 3 4 12 
f 12 9 13 
f 7 5 15 
f 5 8 15 
f 10 7 15 
f 8 10 15 
f 10 1 16 
f 6 3 17 
f 3 12 17 
f 13 6 17 
f 12 13 17 
f 6 13 18 
f 13 9 18 
f 1 14 18 
f 16 1 18 
f 9 16 18 
f 1 8 19 
f 14 1 19 
f 12 4 20 
f 9 12 20 
f 10 16 20 
f 16 9 20 
f 11 6 21 
f 8 11 21 
f 19 8 21 
f 14 19 21 
f 4 7 22 
f 7 10 22 
f 20 4 22 
f 10 20 22 
f 6 18 23 
f 18 14 23 
f 21 6 23 
o convex_1
v -0.804843 -1.258733 -0.011115
v 0.721918 -0.023994 0.081778
v 0.721918 -0.023994 -0.090773
v 0.801644 -1.258733 0.028689
v -0.698541 -0.023994 0.121632
v -0.804843 -0.661064 -0.130627
v 0.708551 -1.258733 -0.117342
v 0.695342 -1.258733 0.121632
v -0.698541 -1.258733 0.121632
v -0.711750 -0.023994 -0.117342
v 0.801644 -0.634837 -0.130627
v -0.791477 -1.112609 -0.130627
v 0.695342 -0.023994 0.121632
v 0.708551 -0.023994 -0.117342
v -0.711750 -1.258733 -0.117342
v 0.788278 -1.112609 -0.130627
v -0.804843 -0.900253 0.028689
v 0.801644 -0.886958 0.028689
v -0.711750 -0.023994 0.108347
v -0.526035 -1.178963 -0.130627
v -0.804843 -1.258733 0.028689
v -0.738326 -0.621663 -0.130627
v 0.801644 -1.112609 -0.117342
v 0.522679 -1.178963 -0.130627
v 0.801644 -1.258733 -0.011115
v -0.804843 -1.032960 -0.117342
f 29 35 49 
f 25 26 28 
f 27 24 30 
f 24 27 31 
f 31 28 32 
f 24 31 32 
f 28 26 33 
f 26 25 34 
f 29 34 35 
f 25 28 36 
f 31 27 36 
f 28 31 36 
f 33 26 37 
f 26 34 37 
f 30 24 38 
f 24 35 38 
f 35 34 39 
f 29 24 40 
f 32 28 40 
f 34 25 41 
f 27 34 41 
f 25 36 41 
f 36 27 41 
f 28 33 42 
f 33 29 42 
f 29 40 42 
f 40 28 42 
f 30 38 43 
f 38 35 43 
f 35 39 43 
f 24 32 44 
f 40 24 44 
f 32 40 44 
f 29 33 45 
f 34 29 45 
f 33 37 45 
f 37 34 45 
f 34 27 46 
f 30 39 46 
f 39 34 46 
f 39 30 47 
f 30 43 47 
f 43 39 47 
f 27 30 48 
f 46 27 48 
f 30 46 48 
f 24 29 49 
f 35 24 49 
o convex_2
v -0.804843 0.613499 -0.130627
v 0.801644 1.263851 0.028689
v 0.801644 1.263851 -0.024399
v 0.721918 -0.023994 0.081778
v -0.698541 1.263851 0.121632
v -0.698541 -0.023994 0.121632
v 0.708551 -0.023994 -0.117342
v -0.711750 1.263851 -0.117342
v 0.695342 1.263851 0.121632
v 0.788278 1.077784 -0.130627
v -0.711750 -0.023994 -0.117342
v 0.695342 -0.023994 0.121632
v -0.804843 1.263851 0.028689
v 0.801644 0.600137 -0.130627
v 0.708551 1.263851 -0.117342
v -0.791477 1.064548 -0.130627
v -0.804843 0.852134 0.028689
v 0.801644 0.852134 0.028689
v -0.526035 1.170818 -0.130627
v -0.711750 -0.023994 0.108347
v 0.721918 -0.023994 -0.090773
v 0.522679 1.170818 -0.130627
v -0.804843 1.263851 -0.011115
v -0.791477 0.586774 -0.130627
v 0.801644 1.024838 -0.130627
v -0.804843 0.985003 -0.117342
f 72 65 75 
f 51 52 54 
f 53 55 56 
f 54 52 57 
f 51 54 58 
f 54 55 58 
f 56 55 60 
f 55 53 61 
f 51 58 61 
f 58 55 61 
f 55 54 62 
f 54 57 62 
f 52 51 63 
f 50 59 63 
f 57 52 64 
f 52 59 64 
f 59 50 65 
f 62 50 66 
f 55 62 66 
f 51 61 67 
f 61 53 67 
f 63 51 67 
f 53 63 67 
f 57 64 68 
f 59 65 68 
f 65 57 68 
f 50 60 69 
f 60 55 69 
f 66 50 69 
f 55 66 69 
f 53 56 70 
f 63 53 70 
f 56 63 70 
f 64 59 71 
f 68 64 71 
f 59 68 71 
f 50 62 72 
f 62 57 72 
f 57 65 72 
f 60 50 73 
f 56 60 73 
f 63 56 73 
f 50 63 73 
f 59 52 74 
f 52 63 74 
f 63 59 74 
f 65 50 75 
f 50 72 75 
o convex_3
v 0.469689 -1.431292 -0.489099
v 0.655600 -1.258756 -0.382885
v 0.655600 -1.497668 -0.382885
v -0.459648 -1.497668 -0.382885
v -0.459648 -1.258756 -0.475812
v -0.459648 -1.497668 -0.475812
v -0.459648 -1.258756 -0.382885
v 0.655600 -1.258756 -0.475812
v 0.655600 -1.497668 -0.475812
v 0.602436 -1.285349 -0.489099
f 84 76 85 
f 78 77 79 
f 78 79 81 
f 80 76 81 
f 79 80 81 
f 79 77 82 
f 80 79 82 
f 77 80 82 
f 77 78 83 
f 80 77 83 
f 81 76 84 
f 78 81 84 
f 83 78 84 
f 83 84 85 
f 76 80 85 
f 80 83 85 
o convex_4
v 0.695430 -1.338373 -0.475822
v 0.801627 -1.258733 0.028645
v 0.801627 -1.338373 0.028645
v 0.629063 -1.258733 0.121632
v 0.775091 -1.258733 -0.475822
v 0.629063 -1.364947 0.121632
v 0.775091 -1.351660 -0.462488
v 0.682154 -1.258733 -0.462488
v 0.629063 -1.364947 -0.117326
v 0.708724 -1.364947 0.108298
v 0.629063 -1.258733 -0.117326
v 0.801627 -1.351660 -0.130660
v 0.695464 -1.258733 0.121632
v 0.788368 -1.258733 -0.409386
f 97 92 99 
f 89 87 90 
f 86 90 92 
f 90 86 93 
f 89 90 93 
f 91 89 94 
f 86 92 94 
f 93 86 94 
f 91 94 95 
f 94 92 95 
f 89 93 96 
f 94 89 96 
f 93 94 96 
f 87 88 97 
f 88 95 97 
f 95 92 97 
f 88 87 98 
f 87 89 98 
f 89 91 98 
f 95 88 98 
f 91 95 98 
f 90 87 99 
f 92 90 99 
f 87 97 99 
o convex_5
v -0.672093 -1.564098 -0.197003
v -0.791550 -1.351694 -0.236841
v -0.791550 -1.351694 -0.117350
v -0.698646 -1.258733 -0.157188
v -0.632262 -1.524224 -0.117350
v -0.645539 -1.484379 -0.236841
v -0.738443 -1.550767 -0.143924
v -0.698646 -1.258733 -0.236841
v -0.791550 -1.258733 -0.183715
v -0.725166 -1.524224 -0.236841
v -0.618986 -1.484379 -0.170475
v -0.698646 -1.311849 -0.117350
v -0.725166 -1.550767 -0.117350
v -0.791550 -1.258733 -0.236841
f 108 107 113 
f 102 101 106 
f 105 101 107 
f 101 102 108 
f 103 107 108 
f 101 105 109 
f 105 100 109 
f 106 101 109 
f 100 106 109 
f 104 100 110 
f 100 105 110 
f 107 103 110 
f 105 107 110 
f 102 104 111 
f 108 102 111 
f 103 108 111 
f 104 110 111 
f 110 103 111 
f 100 104 112 
f 104 102 112 
f 106 100 112 
f 102 106 112 
f 107 101 113 
f 101 108 113 
o convex_6
v -0.804843 -1.351683 -0.050961
v -0.008238 -1.258733 0.121632
v -0.008238 -1.484404 0.121632
v -0.008238 -1.258733 -0.117350
v -0.658794 -1.550822 -0.117350
v -0.698562 -1.471109 0.121632
v -0.698562 -1.258733 0.121632
v -0.008238 -1.497699 -0.104063
v -0.711896 -1.258733 -0.117350
v -0.725152 -1.550822 -0.011123
v -0.804843 -1.258733 0.028692
v -0.008238 -1.497699 0.108345
v -0.738408 -1.537498 -0.117350
v -0.804843 -1.311856 -0.104063
v -0.008238 -1.484404 -0.117350
v -0.685306 -1.497699 0.108345
v -0.804843 -1.338445 0.028692
v -0.738408 -1.537498 -0.011123
f 130 114 131 
f 115 116 117 
f 116 115 119 
f 115 117 120 
f 119 115 120 
f 117 116 121 
f 117 118 122 
f 120 117 122 
f 119 120 124 
f 120 122 124 
f 121 116 125 
f 118 121 125 
f 123 118 125 
f 122 118 126 
f 118 123 126 
f 114 124 127 
f 124 122 127 
f 126 114 127 
f 122 126 127 
f 118 117 128 
f 117 121 128 
f 121 118 128 
f 116 119 129 
f 125 116 129 
f 123 125 129 
f 119 124 130 
f 124 114 130 
f 114 126 131 
f 126 123 131 
f 129 119 131 
f 123 129 131 
f 119 130 131 
o convex_7
v 0.629047 -1.484405 0.121632
v -0.008238 -1.484405 -0.117350
v -0.008238 -1.258756 -0.117350
v 0.629047 -1.484405 -0.117350
v -0.008238 -1.497691 0.108345
v 0.629047 -1.258756 0.121632
v -0.008238 -1.258756 0.121632
v 0.629047 -1.258756 -0.117350
v 0.629047 -1.497691 -0.104063
v -0.008238 -1.484405 0.121632
v -0.008238 -1.497691 -0.104063
v 0.629047 -1.497691 0.108345
f 136 140 143 
f 133 134 135 
f 134 133 136 
f 132 135 137 
f 134 136 138 
f 137 134 138 
f 132 137 138 
f 135 134 139 
f 134 137 139 
f 137 135 139 
f 133 135 140 
f 135 132 140 
f 136 132 141 
f 132 138 141 
f 138 136 141 
f 136 133 142 
f 133 140 142 
f 140 136 142 
f 132 136 143 
f 140 132 143 
o convex_8
v -0.778281 1.290398 -0.475778
v -0.685373 1.290398 -0.356354
v -0.698649 1.303681 -0.250117
v -0.791567 1.263851 -0.250117
v -0.685373 1.263851 -0.475778
v -0.698649 1.263851 -0.250117
v -0.791567 1.303681 -0.250117
v -0.698649 1.303681 -0.462523
v -0.778281 1.263851 -0.475778
f 148 147 152 
f 145 146 149 
f 146 147 149 
f 147 148 149 
f 148 145 149 
f 147 146 150 
f 144 147 150 
f 146 145 151 
f 148 144 151 
f 145 148 151 
f 144 150 151 
f 150 146 151 
f 147 144 152 
f 144 148 152 
o convex_9
v -0.592316 1.277129 -0.489099
v 0.456449 1.489556 -0.382885
v 0.456449 1.263851 -0.382885
v -0.658799 1.489556 -0.382885
v 0.456449 1.489556 -0.475812
v -0.658799 1.263851 -0.382885
v -0.658799 1.489556 -0.475812
v 0.456449 1.263851 -0.475812
v -0.658799 1.263851 -0.475812
v -0.472779 1.436444 -0.489099
f 157 160 162 
f 155 154 156 
f 154 155 157 
f 156 154 157 
f 155 156 158 
f 158 156 159 
f 156 157 159 
f 157 155 160 
f 155 158 160 
f 160 158 161 
f 158 159 161 
f 159 153 161 
f 153 160 161 
f 153 159 162 
f 159 157 162 
f 160 153 162 
o convex_10
v -0.645539 1.555885 -0.170465
v -0.791550 1.263851 -0.250117
v -0.791550 1.263851 -0.117350
v -0.751719 1.529342 -0.170465
v -0.698646 1.263851 -0.117350
v -0.645539 1.476256 -0.236835
v -0.632262 1.516101 -0.117350
v -0.698646 1.263851 -0.250117
v -0.725166 1.529342 -0.236835
v -0.711889 1.555885 -0.117350
v -0.618986 1.489498 -0.170465
f 170 168 173 
f 164 165 166 
f 165 164 167 
f 165 167 169 
f 167 164 170 
f 168 170 171 
f 164 166 171 
f 163 168 171 
f 170 164 171 
f 163 171 172 
f 166 165 172 
f 169 163 172 
f 165 169 172 
f 171 166 172 
f 168 163 173 
f 163 169 173 
f 169 167 173 
f 167 170 173 
o convex_11
v -0.804763 1.263851 -0.104063
v -0.671992 1.555940 -0.011123
v -0.671992 1.555940 -0.117350
v 0.629047 1.263851 0.121632
v 0.629047 1.489551 -0.117350
v 0.629047 1.542645 0.121632
v -0.698378 1.263851 0.121632
v 0.629047 1.263851 -0.117350
v -0.645326 1.542616 0.121632
v 0.629047 1.542645 -0.064225
v -0.804763 1.303707 0.015405
v -0.791430 1.263851 -0.117350
v -0.738378 1.529379 -0.011123
v -0.738378 1.529379 -0.117350
v -0.711711 1.476227 0.108345
v -0.804763 1.263851 0.028692
f 188 184 189 
f 176 175 179 
f 177 178 179 
f 174 177 180 
f 177 179 180 
f 177 174 181 
f 178 177 181 
f 176 178 181 
f 179 175 182 
f 180 179 182 
f 178 176 183 
f 176 179 183 
f 179 178 183 
f 181 174 185 
f 176 181 185 
f 175 176 186 
f 182 175 186 
f 184 186 187 
f 174 184 187 
f 185 174 187 
f 176 185 187 
f 186 176 187 
f 180 182 188 
f 182 186 188 
f 186 184 188 
f 174 180 189 
f 184 174 189 
f 180 188 189 
o convex_12
v 0.801644 -1.032997 -0.210303
v 0.788357 -0.608224 -0.130627
v 0.708717 -0.608224 -0.130627
v 0.695430 -0.409020 -0.369608
v 0.695430 -1.258733 -0.170465
v 0.788357 -1.258733 -0.369608
v 0.788357 -0.409020 -0.369608
v 0.695430 -1.258733 -0.369608
v 0.801644 -1.072754 -0.130627
v 0.695430 -0.462169 -0.236877
v 0.788357 -1.258733 -0.170465
v 0.801644 -0.528542 -0.197016
v 0.695430 -1.112678 -0.130627
v 0.788357 -0.475477 -0.210303
v 0.722005 -0.409020 -0.316460
f 203 196 204 
f 190 195 196 
f 195 193 196 
f 194 193 197 
f 193 195 197 
f 195 194 197 
f 191 192 198 
f 195 190 198 
f 193 194 199 
f 194 195 200 
f 195 198 200 
f 190 196 201 
f 191 198 201 
f 198 190 201 
f 198 192 202 
f 192 199 202 
f 199 194 202 
f 194 200 202 
f 200 198 202 
f 192 191 203 
f 199 192 203 
f 201 196 203 
f 191 201 203 
f 196 193 204 
f 193 199 204 
f 199 203 204 
o convex_13
v -0.778281 -1.351670 -0.449248
v -0.685373 -1.258733 -0.356331
v -0.698649 -1.258733 -0.236841
v -0.778281 -1.258733 -0.475822
v -0.791567 -1.258733 -0.236841
v -0.698649 -1.351670 -0.236841
v -0.685373 -1.338379 -0.475822
v -0.791567 -1.351670 -0.236841
v -0.685373 -1.258733 -0.475822
f 211 208 213 
f 207 206 208 
f 207 208 209 
f 207 209 210 
f 206 207 210 
f 210 205 211 
f 205 208 211 
f 206 210 211 
f 208 205 212 
f 209 208 212 
f 210 209 212 
f 205 210 212 
f 208 206 213 
f 206 211 213 
o convex_14
v -0.472943 -1.272042 -0.608550
v -0.658799 -1.497691 -0.475827
v -0.459648 -1.497691 -0.475827
v -0.658799 -1.258756 -0.382885
v -0.459648 -1.258756 -0.382885
v -0.592402 -1.391474 -0.635143
v -0.459648 -1.497691 -0.382885
v -0.658799 -1.497691 -0.382885
v -0.658799 -1.258756 -0.475827
v -0.472943 -1.431309 -0.621859
v -0.592402 -1.285328 -0.621859
v -0.472943 -1.311876 -0.635143
v -0.592402 -1.258756 -0.568721
v -0.592402 -1.431309 -0.621859
v -0.459648 -1.258756 -0.475827
f 226 218 228 
f 215 216 220 
f 218 217 220 
f 216 218 220 
f 217 215 221 
f 215 220 221 
f 220 217 221 
f 215 217 222 
f 217 218 222 
f 219 215 222 
f 216 215 223 
f 219 222 224 
f 216 223 225 
f 223 219 225 
f 224 214 225 
f 219 224 225 
f 222 218 226 
f 214 224 226 
f 224 222 226 
f 215 219 227 
f 223 215 227 
f 219 223 227 
f 218 216 228 
f 225 214 228 
f 216 225 228 
f 214 226 228 
o convex_15
v 0.469725 -1.391498 -0.635143
v 0.602493 -1.272033 -0.489099
v 0.602493 -1.258733 -0.515660
v 0.602493 -1.431307 -0.621863
v 0.469725 -1.431307 -0.489099
v 0.469725 -1.272033 -0.608582
v 0.602493 -1.431307 -0.489099
v 0.469725 -1.272033 -0.489099
v 0.602493 -1.311843 -0.635143
v 0.469725 -1.444608 -0.595287
f 235 233 238 
f 231 230 232 
f 229 233 234 
f 232 230 235 
f 230 233 235 
f 230 231 236 
f 233 230 236 
f 234 233 236 
f 231 234 236 
f 231 232 237 
f 232 229 237 
f 234 231 237 
f 229 234 237 
f 229 232 238 
f 233 229 238 
f 232 235 238 
o convex_16
v -0.526018 0.493860 -0.369608
v -0.393264 1.184013 -0.130627
v -0.393264 1.197467 -0.183775
v -0.393264 0.042389 -0.369608
v -0.526018 0.958447 -0.130627
v -0.526018 0.042389 -0.356321
v -0.526018 1.197467 -0.197016
v -0.393264 0.493860 -0.369608
v -0.393264 0.958447 -0.130627
v -0.526018 1.184013 -0.130627
v -0.393264 1.157555 -0.210303
v -0.393264 0.042389 -0.356321
v -0.526018 0.042389 -0.369608
v -0.526018 0.560230 -0.356321
f 249 246 252 
f 241 240 242 
f 243 239 244 
f 239 243 245 
f 241 242 246 
f 242 239 246 
f 242 240 247 
f 240 243 247 
f 243 244 247 
f 240 241 248 
f 243 240 248 
f 241 245 248 
f 245 243 248 
f 245 241 249 
f 241 246 249 
f 244 242 250 
f 242 247 250 
f 247 244 250 
f 239 242 251 
f 244 239 251 
f 242 244 251 
f 239 245 252 
f 246 239 252 
f 245 249 252 
o convex_17
v 0.695424 -1.364947 0.121632
v 0.682160 -1.564098 -0.210278
v 0.695424 -1.564098 -0.210278
v 0.708688 -1.364947 -0.117326
v 0.629047 -1.364947 -0.117326
v 0.629047 -1.497682 0.108333
v 0.748537 -1.510958 -0.011146
v 0.629047 -1.510958 -0.223542
v 0.735250 -1.484407 -0.236841
v 0.629047 -1.364947 0.121632
v 0.655621 -1.550784 -0.011146
v 0.708688 -1.484407 0.108333
v 0.721963 -1.364947 0.081770
v 0.748537 -1.471151 -0.210278
v 0.721963 -1.550784 -0.011146
v 0.748537 -1.537508 -0.170452
v 0.668896 -1.457895 -0.236841
v 0.629047 -1.537508 -0.170452
f 263 258 270 
f 253 256 257 
f 258 257 260 
f 255 254 261 
f 254 260 261 
f 253 257 262 
f 257 258 262 
f 258 253 262 
f 254 255 263 
f 253 258 264 
f 256 253 265 
f 253 264 265 
f 264 259 265 
f 261 256 266 
f 256 265 266 
f 265 259 266 
f 263 255 267 
f 258 263 267 
f 264 258 267 
f 259 264 267 
f 255 261 268 
f 266 259 268 
f 261 266 268 
f 267 255 268 
f 259 267 268 
f 257 256 269 
f 260 257 269 
f 256 261 269 
f 261 260 269 
f 260 254 270 
f 258 260 270 
f 254 263 270 
o convex_18
v -0.738473 0.400888 -0.250117
v -0.698650 1.064570 -0.130627
v -0.791546 1.064570 -0.130627
v -0.685364 1.263851 -0.369608
v -0.791546 0.387632 -0.356321
v -0.685364 0.361032 -0.369608
v -0.778272 1.263851 -0.369608
v -0.804832 0.586913 -0.130627
v -0.698650 0.560225 -0.143914
v -0.751723 1.263851 -0.157201
v -0.791546 1.263851 -0.329770
v -0.698650 1.263851 -0.157201
v -0.791546 1.263851 -0.183775
v -0.791546 0.427488 -0.210303
v -0.778272 0.361032 -0.369608
v -0.698650 0.427488 -0.210303
v -0.711924 0.560225 -0.130627
f 286 279 287 
f 274 272 276 
f 274 276 277 
f 272 273 278 
f 276 272 279 
f 273 272 280 
f 274 277 280 
f 280 277 281 
f 277 275 281 
f 275 278 281 
f 272 274 282 
f 280 272 282 
f 274 280 282 
f 278 273 283 
f 273 280 283 
f 280 281 283 
f 281 278 283 
f 278 275 284 
f 276 271 285 
f 275 277 285 
f 277 276 285 
f 271 284 285 
f 284 275 285 
f 271 276 286 
f 276 279 286 
f 284 271 286 
f 284 286 287 
f 272 278 287 
f 279 272 287 
f 278 284 287 
o convex_19
v -0.393264 -0.023994 -0.369619
v -0.778290 -1.258733 -0.475822
v -0.008238 -1.258733 -0.475822
v -0.658742 -0.023994 -0.475822
v -0.778290 -1.258733 -0.369619
v -0.008238 -0.023994 -0.382894
v -0.008238 -1.258733 -0.382894
v -0.008238 -0.023994 -0.475822
v -0.778290 -0.395770 -0.369619
v -0.778290 -0.409065 -0.475822
v -0.658742 -0.023994 -0.382904
v -0.393264 -0.448949 -0.369619
v -0.685275 -1.258733 -0.369619
v -0.526003 -0.023994 -0.369619
f 298 296 301 
f 290 289 291 
f 289 290 292 
f 291 288 293 
f 292 290 294 
f 290 293 294 
f 293 288 294 
f 290 291 295 
f 293 290 295 
f 291 293 295 
f 292 288 296 
f 289 292 296 
f 291 289 297 
f 289 296 297 
f 296 291 297 
f 288 291 298 
f 291 296 298 
f 288 292 299 
f 294 288 299 
f 294 299 300 
f 292 294 300 
f 299 292 300 
f 296 288 301 
f 288 298 301 
o convex_20
v 0.522780 -0.023994 -0.369619
v -0.008238 -1.258733 -0.475822
v 0.775034 -1.258733 -0.475822
v -0.008238 -0.023994 -0.475822
v -0.008238 -1.258733 -0.382904
v 0.788368 -1.258733 -0.369619
v 0.655574 -0.023994 -0.475822
v -0.008238 -0.023994 -0.382904
v 0.788368 -0.409065 -0.369619
v 0.775034 -0.409065 -0.475822
v 0.390065 -0.448949 -0.369619
v 0.655574 -0.023994 -0.382904
v 0.788368 -0.409065 -0.409455
v 0.695342 -1.258733 -0.369619
v 0.390065 -0.023994 -0.369619
f 309 312 316 
f 304 303 305 
f 303 304 306 
f 305 303 306 
f 306 304 307 
f 304 305 308 
f 305 302 308 
f 302 305 309 
f 305 306 309 
f 302 307 310 
f 304 308 311 
f 307 302 312 
f 309 306 312 
f 308 302 313 
f 302 310 313 
f 310 308 313 
f 307 304 314 
f 310 307 314 
f 308 310 314 
f 311 308 314 
f 304 311 314 
f 306 307 315 
f 307 312 315 
f 312 306 315 
f 302 309 316 
f 312 302 316 
o convex_21
v -0.393243 0.440795 -0.369619
v -0.778290 0.361124 -0.475822
v -0.778290 0.361124 -0.369619
v -0.778290 1.263851 -0.475822
v 0.018316 -0.023994 -0.475822
v 0.018316 1.263851 -0.382894
v 0.018316 1.263851 -0.475822
v -0.778290 1.263851 -0.369619
v 0.018316 -0.023994 -0.382894
v -0.658752 -0.023994 -0.382904
v -0.658752 -0.023994 -0.475822
v -0.393243 -0.023994 -0.369619
v -0.685264 1.263851 -0.369619
v -0.526037 -0.023994 -0.369619
f 326 328 330 
f 318 319 320 
f 318 320 321 
f 322 321 323 
f 321 320 323 
f 320 322 323 
f 319 317 324 
f 320 319 324 
f 322 320 324 
f 322 317 325 
f 321 322 325 
f 319 318 326 
f 321 325 326 
f 318 321 327 
f 326 318 327 
f 321 326 327 
f 317 319 328 
f 325 317 328 
f 326 325 328 
f 317 322 329 
f 324 317 329 
f 322 324 329 
f 319 326 330 
f 328 319 330 
o convex_22
v 0.788368 1.263851 -0.369619
v 0.018316 -0.023994 -0.475822
v 0.655553 -0.023994 -0.475822
v 0.018316 1.263851 -0.475822
v 0.018316 -0.023994 -0.382904
v 0.775026 1.263851 -0.475822
v 0.018316 1.263851 -0.382904
v 0.788368 0.361124 -0.369619
v 0.522814 -0.023994 -0.369619
v 0.775026 0.361124 -0.475822
v 0.390075 0.440795 -0.369619
v 0.655553 -0.023994 -0.382904
v 0.788368 0.361124 -0.409455
v 0.695352 1.263851 -0.369619
v 0.390075 -0.023994 -0.369619
v 0.788368 1.263851 -0.409455
f 343 336 346 
f 333 332 334 
f 332 333 335 
f 334 332 335 
f 333 334 336 
f 334 331 336 
f 331 334 337 
f 334 335 337 
f 335 333 339 
f 338 331 339 
f 333 336 340 
f 337 335 341 
f 339 331 341 
f 333 338 342 
f 339 333 342 
f 338 339 342 
f 331 338 343 
f 338 333 343 
f 333 340 343 
f 340 336 343 
f 331 337 344 
f 341 331 344 
f 337 341 344 
f 335 339 345 
f 341 335 345 
f 339 341 345 
f 336 331 346 
f 331 343 346 
o convex_23
v -0.592404 1.316961 -0.635143
v -0.472924 1.436426 -0.489099
v -0.472924 1.449726 -0.515660
v -0.472924 1.263851 -0.582035
v -0.592404 1.277151 -0.489099
v -0.592404 1.449726 -0.515660
v -0.472924 1.423144 -0.621863
v -0.472924 1.277151 -0.489099
v -0.592404 1.436426 -0.608582
v -0.472924 1.316961 -0.635143
v -0.592404 1.263851 -0.582035
v -0.592404 1.436426 -0.489099
f 352 351 358 
f 349 348 350 
f 348 349 352 
f 347 351 352 
f 349 350 353 
f 350 348 354 
f 351 350 354 
f 348 351 354 
f 347 352 355 
f 352 349 355 
f 349 353 355 
f 353 347 355 
f 350 347 356 
f 353 350 356 
f 347 353 356 
f 347 350 357 
f 351 347 357 
f 350 351 357 
f 351 348 358 
f 348 352 358 
o convex_24
v 0.390065 0.493860 -0.369608
v 0.522832 1.184013 -0.130627
v 0.522832 1.197467 -0.183775
v 0.522832 0.042389 -0.369608
v 0.390065 0.958447 -0.130627
v 0.390065 0.042389 -0.356321
v 0.390065 1.197467 -0.197016
v 0.522832 0.493860 -0.369608
v 0.522832 0.958447 -0.130627
v 0.390065 1.184013 -0.130627
v 0.522832 1.157555 -0.210303
v 0.522832 0.042389 -0.356321
v 0.390065 0.042389 -0.369608
v 0.390065 0.560230 -0.356321
f 369 366 372 
f 361 360 362 
f 363 359 364 
f 359 363 365 
f 361 362 366 
f 362 359 366 
f 362 360 367 
f 360 363 367 
f 363 364 367 
f 360 361 368 
f 363 360 368 
f 361 365 368 
f 365 363 368 
f 365 361 369 
f 361 366 369 
f 364 362 370 
f 362 367 370 
f 367 364 370 
f 359 362 371 
f 364 359 371 
f 362 364 371 
f 359 365 372 
f 366 359 372 
f 365 369 372 
o convex_25
v 0.602479 1.449700 -0.582005
v 0.469744 1.263851 -0.582005
v 0.602479 1.263851 -0.582005
v 0.456449 1.263851 -0.382885
v 0.655600 1.263851 -0.382885
v 0.456449 1.489556 -0.382885
v 0.655600 1.489556 -0.382885
v 0.469744 1.396588 -0.635143
v 0.602479 1.316963 -0.635143
v 0.655600 1.489556 -0.475827
v 0.456449 1.489556 -0.475827
v 0.655600 1.263851 -0.475827
v 0.602479 1.396588 -0.635143
v 0.469744 1.290407 -0.621859
v 0.469744 1.436444 -0.608550
f 385 380 387 
f 374 375 376 
f 376 375 377 
f 376 377 378 
f 378 377 379 
f 379 377 382 
f 378 379 382 
f 376 378 383 
f 382 373 383 
f 378 382 383 
f 377 375 384 
f 375 381 384 
f 382 377 384 
f 381 382 384 
f 381 380 385 
f 373 382 385 
f 382 381 385 
f 375 374 386 
f 374 376 386 
f 381 375 386 
f 380 381 386 
f 376 383 386 
f 383 380 386 
f 383 373 387 
f 380 383 387 
f 373 385 387 
o convex_26
v 0.695430 1.290400 -0.475778
v 0.801627 1.290405 0.028652
v 0.801627 1.263851 0.028652
v 0.629063 1.316958 0.121632
v 0.629063 1.263851 0.121632
v 0.775091 1.263851 -0.475778
v 0.775091 1.303681 -0.462504
v 0.682154 1.263851 -0.462504
v 0.629063 1.316958 -0.117309
v 0.708724 1.316958 0.108299
v 0.801627 1.303671 -0.143916
v 0.629063 1.263851 -0.117309
f 396 395 399 
f 390 392 393 
f 393 388 394 
f 393 392 395 
f 388 393 395 
f 392 391 396 
f 394 388 396 
f 388 395 396 
f 390 389 397 
f 391 392 397 
f 392 390 397 
f 396 391 397 
f 394 396 397 
f 389 390 398 
f 390 393 398 
f 393 394 398 
f 397 389 398 
f 394 397 398 
f 395 392 399 
f 392 396 399 
o convex_27
v 0.695430 0.361032 -0.329770
v 0.788357 1.064570 -0.130627
v 0.775091 1.237251 -0.157201
v 0.788357 1.263851 -0.369608
v 0.788357 0.361032 -0.369608
v 0.695430 1.263851 -0.369608
v 0.708717 0.560225 -0.130627
v 0.695430 1.263851 -0.170465
v 0.801644 0.573481 -0.130627
v 0.695430 0.361032 -0.369608
v 0.695430 1.064570 -0.130627
v 0.788357 0.427488 -0.210303
v 0.801644 0.985034 -0.210303
v 0.788357 1.263851 -0.170465
v 0.695430 0.414144 -0.236877
v 0.801644 1.024802 -0.130627
v 0.801644 0.480600 -0.210303
f 412 408 416 
f 403 404 405 
f 405 400 407 
f 403 405 407 
f 401 406 408 
f 404 400 409 
f 400 405 409 
f 405 404 409 
f 401 402 410 
f 406 401 410 
f 402 407 410 
f 407 400 410 
f 400 404 411 
f 408 406 411 
f 404 403 412 
f 407 402 413 
f 403 407 413 
f 406 410 414 
f 410 400 414 
f 400 411 414 
f 411 406 414 
f 402 401 415 
f 401 408 415 
f 412 403 415 
f 408 412 415 
f 413 402 415 
f 403 413 415 
f 411 404 416 
f 408 411 416 
f 404 412 416 
o convex_28
v 0.721963 1.555932 -0.196979
v 0.629047 1.316958 -0.117326
v 0.708688 1.316958 -0.117326
v 0.629047 1.542648 0.121632
v 0.708688 1.316958 0.108333
v 0.629047 1.502794 -0.223542
v 0.748537 1.516103 -0.011146
v 0.629047 1.316958 0.121632
v 0.748537 1.476249 -0.210278
v 0.695424 1.476249 0.121632
v 0.721963 1.462990 -0.236841
v 0.642334 1.555932 -0.157153
v 0.721963 1.316958 0.081770
v 0.708688 1.555932 -0.011146
v 0.668896 1.542648 -0.236841
v 0.655621 1.462990 -0.236841
v 0.708688 1.489534 0.108333
f 430 420 433 
f 418 419 421 
f 418 420 422 
f 420 418 424 
f 418 421 424 
f 417 423 425 
f 420 424 426 
f 424 421 426 
f 419 418 427 
f 425 419 427 
f 417 425 427 
f 422 420 428 
f 421 419 429 
f 419 425 429 
f 425 423 429 
f 423 417 430 
f 417 428 430 
f 428 420 430 
f 417 427 431 
f 428 417 431 
f 422 428 431 
f 418 422 432 
f 427 418 432 
f 431 427 432 
f 422 431 432 
f 420 426 433 
f 426 421 433 
f 421 429 433 
f 429 423 433 
f 423 430 433 
o convex_29
v -0.778272 -1.258733 -0.369608
v -0.711924 -0.608224 -0.130627
v -0.791546 -0.608224 -0.130627
v -0.778272 -0.409020 -0.369608
v -0.685364 -0.409020 -0.369608
v -0.698650 -1.258733 -0.157201
v -0.685364 -1.258733 -0.369608
v -0.791546 -1.112678 -0.130627
v -0.791546 -0.409020 -0.329770
v -0.791546 -1.258733 -0.183775
v -0.698650 -0.475477 -0.210303
v -0.804832 -0.661289 -0.157201
v -0.791546 -1.258733 -0.329770
v -0.698650 -1.112678 -0.130627
v -0.791546 -0.475477 -0.210303
v -0.791546 -0.409020 -0.356321
v -0.698650 -0.608224 -0.143914
f 435 447 450 
f 434 437 438 
f 434 438 440 
f 439 434 440 
f 435 436 441 
f 438 437 442 
f 434 439 443 
f 439 441 443 
f 436 435 444 
f 438 442 444 
f 441 436 445 
f 443 441 445 
f 443 445 446 
f 434 443 446 
f 440 438 447 
f 439 440 447 
f 435 441 447 
f 441 439 447 
f 436 444 448 
f 444 442 448 
f 445 436 448 
f 442 445 448 
f 437 434 449 
f 442 437 449 
f 445 442 449 
f 446 445 449 
f 434 446 449 
f 444 435 450 
f 438 444 450 
f 447 438 450 
o convex_30
v -0.526018 -0.501971 -0.369608
v -0.393264 -0.966557 -0.130627
v -0.526018 -0.966557 -0.130627
v -0.526018 -0.037271 -0.356321
v -0.393264 -0.037271 -0.369608
v -0.393264 -1.192349 -0.197016
v -0.526018 -1.192349 -0.197016
v -0.393264 -0.501971 -0.369608
v -0.526018 -1.178894 -0.130627
v -0.393264 -1.178894 -0.130627
v -0.393264 -0.090412 -0.343034
v -0.526018 -0.037271 -0.369608
v -0.393264 -1.046268 -0.236877
v -0.526018 -0.847047 -0.157201
f 461 454 464 
f 451 453 454 
f 455 452 456 
f 453 451 457 
f 451 455 458 
f 455 456 458 
f 452 453 459 
f 453 457 459 
f 457 456 459 
f 456 452 460 
f 452 459 460 
f 459 456 460 
f 455 454 461 
f 452 455 461 
f 451 454 462 
f 455 451 462 
f 454 455 462 
f 456 457 463 
f 457 451 463 
f 451 458 463 
f 458 456 463 
f 453 452 464 
f 454 453 464 
f 452 461 464 
o convex_31
v 0.390065 -0.501971 -0.369608
v 0.522832 -0.966557 -0.130627
v 0.390065 -0.966557 -0.130627
v 0.522832 -0.037271 -0.356321
v 0.522832 -1.192349 -0.197016
v 0.390065 -0.037271 -0.356321
v 0.522832 -0.501971 -0.369608
v 0.390065 -1.192349 -0.197016
v 0.522832 -1.178894 -0.130627
v 0.390065 -1.178894 -0.130627
v 0.522832 -0.037271 -0.369608
v 0.390065 -0.037271 -0.369608
v 0.522832 -1.046268 -0.236877
v 0.390065 -0.847047 -0.157201
f 468 470 478 
f 468 466 469 
f 465 467 470 
f 468 469 471 
f 467 465 472 
f 472 469 473 
f 466 467 473 
f 469 466 473 
f 467 472 474 
f 472 473 474 
f 473 467 474 
f 470 468 475 
f 471 465 475 
f 468 471 475 
f 465 470 476 
f 475 465 476 
f 470 475 476 
f 465 471 477 
f 471 469 477 
f 472 465 477 
f 469 472 477 
f 467 466 478 
f 466 468 478 
f 470 467 478 
